# xmcd CD database file
#
# Track frame offsets:
#	150
#	19037
#	42872
#	61762
#
# Disc length: 1139 seconds
#
# Revision: 17
# Processed by: cddbd v1.5.2PL0 Copyright (c) Steve Scherf et al.
# Submitted via: CDex 1.70beta3
#
DISCID=26047104
DTITLE=KOTOKO - 覚えてていいよ/DuDiDuWa*lalala
DYEAR=2004
DGENRE=Pop
TTITLE0=覚えてていいよ
TTITLE1=DuDiDuWa*lalala
TTITLE2=覚えてていいよ (オリジナルカラオケ)
TTITLE3=DuDiDuWa*lalala (オリジナルカラオケ)
EXTD=YEAR: 2004
EXTT0=
EXTT1=
EXTT2=
EXTT3=
PLAYORDER=
